<svg width="150" height="28" viewBox="0 0 150 28" fill="none" xmlns="http://www.w3.org/2000/svg">
<g clip-path="url(#clip0_11825_5042)">
<path d="M6.47804 19.6585C6.94621 19.2229 7.41996 18.7932 7.88158 18.3509C10.609 15.7374 12.9172 12.7885 14.9672 9.63586C16.307 7.57558 17.6181 5.4969 18.965 3.44123C19.5276 2.58261 20.2016 1.80843 20.9464 1.09177C21.8626 0.210278 22.939 -0.0261303 24.141 0.274555C25.4768 0.608665 26.4653 1.35808 26.8416 2.7316C27.0782 3.59509 26.9255 4.43341 26.5749 5.2406C26.0713 6.39977 25.2831 7.36448 24.4169 8.26952C22.689 10.0751 20.704 11.5748 18.6349 12.9684C14.8164 15.5401 10.7599 17.6947 6.59853 19.6632C6.57015 19.6766 6.5389 19.6839 6.50902 19.6941C6.49865 19.6823 6.48828 19.6704 6.47804 19.6585Z" fill="white"/>
<path d="M2.98736 26.742C2.43609 25.7453 2.04843 24.7425 1.72586 23.7147C1.0522 21.5681 0.645302 19.3669 0.366533 17.1394C0.145209 15.3707 0.0192654 13.5955 0.0028913 11.8145C-0.0189409 9.43701 0.0704328 7.06685 0.703703 4.75243C1.01863 3.60152 1.56894 2.58552 2.53406 1.83692C4.19836 0.545813 6.4715 1.32608 6.91892 3.34373C7.06984 4.0244 6.98633 4.71292 6.77592 5.36341C6.34023 6.71108 5.88189 8.05307 5.38248 9.37882C4.5796 11.5104 3.81329 13.6503 3.32834 15.8798C2.73328 18.616 2.53556 21.379 2.74038 24.1693C2.80233 25.0108 2.90071 25.8498 2.98736 26.742Z" fill="white"/>
<path d="M6.9514 22.8383C9.14158 23.3505 11.3274 23.6223 13.5446 23.6034C16.5629 23.5777 19.4652 22.9408 22.2988 21.9477C23.292 21.5995 24.2873 21.2543 25.2928 20.9435C26.1658 20.6737 27.0493 20.6699 27.8928 21.0668C28.6439 21.4202 29.1733 21.9681 29.2991 22.8209C29.3911 23.4444 29.1848 23.9909 28.7451 24.4118C28.4075 24.7349 28.0109 25.0203 27.5946 25.2355C26.4924 25.8052 25.2941 26.1098 24.0736 26.2934C18.0022 27.2066 12.3304 26.0915 7.06465 22.9605C7.03641 22.9437 7.00884 22.9257 6.98251 22.9061C6.97487 22.9004 6.9731 22.887 6.9514 22.8383Z" fill="white"/>
<line x1="46.8455" y1="3.9576" x2="46.8455" y2="24.0424" stroke="white"/>
<path d="M64.8258 12.3223C64.2606 12.3223 63.6013 12.6028 62.6796 13.4242L61.9933 12.7297C63.9242 10.6192 68.6203 7.14625 68.6203 4.30779C68.6203 2.49786 67.8197 1.65635 66.1915 1.65635C64.4826 1.65635 63.2985 2.66483 63.2985 4.02729C63.5004 3.98722 63.7022 3.97386 63.8637 3.97386C64.9267 3.97386 65.2496 4.53487 65.2496 5.11592C65.2496 5.88397 64.6239 6.33145 63.9242 6.33145C63.0025 6.33145 62.2759 5.67693 62.2759 4.26104C62.2759 2.35761 63.9646 0.64118 66.5346 0.64118C69.5891 0.64118 70.8943 2.0771 70.8943 4.18758C70.8943 6.44498 67.342 9.20997 64.6845 11.247L64.7652 11.434C65.2496 11.3004 66.0502 11.1 66.6154 11.1C68.0619 11.1 68.923 11.7546 69.7102 11.7546C70.4502 11.7546 70.6319 11.0466 70.6723 9.96467H71.5738V10.1917C71.5738 12.5426 70.5713 13.4576 68.7616 13.4576C66.8912 13.4376 65.7677 12.3223 64.8258 12.3223Z" fill="white"/>
<path d="M76.6533 13.2907C76.5322 13.4243 76.4313 13.4243 76.3102 13.4243C76.1487 13.4243 75.449 13.0303 75.0655 12.8299C75.005 12.7898 74.9444 12.7164 74.9444 12.6229C74.9444 12.5294 74.9646 12.4559 75.0252 12.3824C76.8955 9.71094 79.5261 5.6436 80.9928 2.37771L74.783 2.41778V4.54829C74.783 4.7353 74.7022 4.80876 74.5004 4.80876H74.0631C73.8613 4.80876 73.7805 4.7353 73.7805 4.54829V0.741425H81.9952L82.4594 1.56291C80.9524 5.35641 76.7542 13.1772 76.6533 13.2907Z" fill="white"/>
<path d="M95.0136 6.88583C95.0136 11.1268 92.6454 13.4978 89.4699 13.4978C86.2741 13.4978 84.027 11.1268 84.027 6.88583C84.027 2.912 86.5163 0.521017 89.7121 0.521017C92.9616 0.521017 95.0136 2.912 95.0136 6.88583ZM89.4699 12.4292C91.7372 12.4292 92.8069 10.6526 92.8069 6.88583C92.8069 3.13239 92.0668 1.58293 89.7121 1.58293C87.465 1.58293 86.2405 3.13239 86.2405 6.88583C86.2338 10.6593 87.216 12.4292 89.4699 12.4292Z" fill="white"/>
<path d="M109.088 1.69645V1.30908C109.088 1.12876 109.162 1.06197 109.371 1.06197H114.02L117.431 7.92101L120.674 1.06197H125.154C125.343 1.06197 125.423 1.13544 125.423 1.30908V1.69645C125.423 1.87677 125.349 1.94356 125.154 1.94356H123.593V12.1486L125.08 12.1152C125.269 12.1152 125.349 12.1887 125.349 12.3624V12.7497C125.349 12.93 125.275 12.9968 125.08 12.9968L122.584 12.9234L120.277 12.9968C120.088 12.9968 120.008 12.9234 120.008 12.7497V12.3624C120.008 12.182 120.082 12.1152 120.277 12.1152L121.69 12.1486V2.17732H121.232L117.458 10.0248H116.563L112.54 2.17732H112.123V12.1687L113.798 12.1152C113.986 12.1152 114.067 12.1887 114.067 12.3624V12.7497C114.067 12.93 113.993 12.9968 113.798 12.9968L111.584 12.9234L109.371 12.9968C109.182 12.9968 109.102 12.9234 109.102 12.7497V12.3624C109.102 12.182 109.176 12.1152 109.371 12.1152L110.972 12.1687V1.94356H109.351C109.169 1.94356 109.088 1.87677 109.088 1.69645Z" fill="white"/>
<path d="M126.931 12.7564V12.369C126.931 12.1887 127.005 12.1219 127.2 12.1219L128.686 12.1754V1.89013L126.836 1.94356C126.648 1.94356 126.567 1.87009 126.567 1.69645V1.30908C126.567 1.12876 126.641 1.06197 126.836 1.06197H136.101C136.289 2.39103 136.612 4.78201 136.612 5.02913C136.612 5.13599 136.572 5.29628 136.363 5.29628H135.946C135.791 5.29628 135.757 5.18941 135.677 4.9757C135.522 4.51486 135.165 3.41956 134.647 1.94356H130.59V12.1486L132.077 12.1152C132.266 12.1152 132.346 12.1887 132.346 12.3624V12.7497C132.346 12.93 132.272 12.9968 132.077 12.9968L129.501 12.93L127.193 13.0035C127.005 13.0035 126.931 12.93 126.931 12.7564Z" fill="white"/>
<path d="M140.366 12.2221C140.366 11.601 140.749 11.0533 141.644 11.0533C142.008 11.0533 142.499 11.1802 142.727 11.4808C142.997 10.8797 143.279 10.2786 143.568 9.67083L138.724 1.91017L137.238 1.94356C137.049 1.94356 136.968 1.87009 136.968 1.69645V1.30908C136.968 1.12876 137.042 1.06197 137.238 1.06197L139.693 1.13544L142.035 1.06197C142.223 1.06197 142.304 1.13544 142.304 1.30908V1.69645C142.304 1.87677 142.23 1.94356 142.035 1.94356L140.682 1.91017L144.396 7.91433C145.365 5.93075 146.361 3.9071 147.235 1.89013L145.728 1.94356C145.54 1.94356 145.459 1.87009 145.459 1.69645V1.30908C145.459 1.12876 145.533 1.06197 145.728 1.06197L147.942 1.13544L149.772 1.06197C149.96 1.06197 150.041 1.13544 150.041 1.30908V1.69645C150.041 1.87677 149.967 1.94356 149.772 1.94356L148.359 1.89013C146.892 5.18274 145.062 8.62227 143.629 11.7412C143.098 12.91 142.559 13.3174 141.611 13.2974C140.938 13.284 140.366 12.8232 140.366 12.2221Z" fill="white"/>
<path d="M122.914 23.2154C122.726 23.2154 122.51 23.3089 122.201 23.5761L121.972 23.349C122.611 22.6544 124.159 21.5057 124.159 20.5706C124.159 19.9696 123.896 19.6957 123.358 19.6957C122.793 19.6957 122.403 20.0297 122.403 20.4771C122.47 20.4638 122.537 20.4571 122.591 20.4571C122.941 20.4571 123.049 20.6441 123.049 20.8311C123.049 21.0849 122.84 21.2318 122.611 21.2318C122.308 21.2318 122.066 21.0181 122.066 20.5439C122.066 19.9161 122.625 19.3484 123.472 19.3484C124.482 19.3484 124.912 19.8226 124.912 20.5172C124.912 21.2652 123.735 22.1735 122.86 22.8481L122.887 22.9082C123.049 22.8681 123.311 22.7946 123.499 22.7946C123.977 22.7946 124.26 23.0084 124.522 23.0084C124.764 23.0084 124.825 22.7746 124.838 22.414H125.134V22.4874C125.134 23.2622 124.805 23.5694 124.206 23.5694C123.6 23.5827 123.23 23.2154 122.914 23.2154Z" fill="white"/>
<path d="M129.823 21.4188C129.823 22.8213 129.043 23.6027 127.994 23.6027C126.937 23.6027 126.197 22.8213 126.197 21.4188C126.197 20.1031 127.018 19.315 128.074 19.315C129.144 19.315 129.823 20.1097 129.823 21.4188ZM127.994 23.2554C128.74 23.2554 129.097 22.6677 129.097 21.4255C129.097 20.1832 128.855 19.6756 128.074 19.6756C127.334 19.6756 126.924 20.1899 126.924 21.4255C126.924 22.6677 127.247 23.2554 127.994 23.2554Z" fill="white"/>
<path d="M131.808 23.2154C131.62 23.2154 131.405 23.3089 131.095 23.5761L130.866 23.349C131.505 22.6544 133.053 21.5057 133.053 20.5706C133.053 19.9696 132.79 19.6957 132.252 19.6957C131.687 19.6957 131.297 20.0297 131.297 20.4771C131.364 20.4638 131.431 20.4571 131.485 20.4571C131.835 20.4571 131.943 20.6441 131.943 20.8311C131.943 21.0849 131.734 21.2318 131.505 21.2318C131.203 21.2318 130.96 21.0181 130.96 20.5439C130.96 19.9161 131.519 19.3484 132.367 19.3484C133.376 19.3484 133.806 19.8226 133.806 20.5172C133.806 21.2652 132.629 22.1735 131.754 22.8481L131.781 22.9082C131.943 22.8681 132.205 22.7946 132.394 22.7946C132.871 22.7946 133.154 23.0084 133.416 23.0084C133.658 23.0084 133.719 22.7746 133.732 22.414H134.028V22.4874C134.028 23.2622 133.699 23.5694 133.1 23.5694C132.488 23.5827 132.118 23.2154 131.808 23.2154Z" fill="white"/>
<path d="M135.031 22.7345C135.031 22.4607 135.186 22.2603 135.461 22.2603C135.731 22.2603 135.858 22.4273 135.858 22.6677C135.858 22.8747 135.69 23.0083 135.596 23.0684C135.65 23.1619 135.905 23.3356 136.336 23.3356C137.002 23.3356 137.365 22.995 137.365 22.0933C137.365 21.3787 137.042 21.1049 136.518 21.1049C136.208 21.1049 135.892 21.1516 135.744 21.3988L135.717 21.5791H135.36L135.529 19.3684C135.879 19.3684 136.639 19.3818 137.056 19.3551C137.554 19.3217 137.608 19.2749 137.803 18.921L138.011 18.9877C137.897 19.5888 137.554 19.876 136.935 19.9027C136.659 19.9161 136.127 19.9161 135.858 19.9161L135.778 20.9914C136.013 20.8311 136.296 20.7643 136.612 20.7643C137.5 20.7643 138.018 21.2451 138.018 22.08C138.018 22.9415 137.386 23.6294 136.336 23.6294C135.569 23.6294 135.031 23.2421 135.031 22.7345Z" fill="white"/>
<path d="M68.6337 20.998L68.4655 20.7509C69.098 20.3435 69.5958 19.876 69.9591 19.3417H70.1542V23.2487L70.6723 23.2354C70.7396 23.2354 70.7665 23.2621 70.7665 23.3222V23.4557C70.7665 23.5159 70.7396 23.5426 70.6723 23.5426L69.8044 23.5159L68.8692 23.5426C68.8019 23.5426 68.775 23.5159 68.775 23.4557V23.3222C68.775 23.2621 68.8019 23.2354 68.8692 23.2354L69.5218 23.2554V20.3501C69.2191 20.6106 68.9096 20.831 68.6337 20.998Z" fill="white"/>
<path d="M72.6435 23.5359C72.6032 23.576 72.5695 23.576 72.5292 23.576C72.4753 23.576 72.2466 23.4491 72.1188 23.3757C72.0986 23.3623 72.0784 23.3356 72.0784 23.3089C72.0784 23.2755 72.0851 23.2554 72.1053 23.2287C72.7243 22.3471 73.5922 21.0047 74.0766 19.9228L72.0246 19.9361V20.6374C72.0246 20.6975 71.9977 20.7242 71.9304 20.7242H71.7824C71.7151 20.7242 71.6882 20.6975 71.6882 20.6374V19.3818H74.3995L74.5542 19.6556C74.0631 20.9179 72.6704 23.4959 72.6435 23.5359Z" fill="white"/>
<path d="M75.2876 22.7345C75.2876 22.4607 75.4423 22.2603 75.7182 22.2603C75.9873 22.2603 76.1151 22.4273 76.1151 22.6677C76.1151 22.8747 75.9469 23.0083 75.8527 23.0684C75.9066 23.1619 76.1622 23.3356 76.5928 23.3356C77.2589 23.3356 77.6222 22.995 77.6222 22.0933C77.6222 21.3787 77.2992 21.1049 76.7744 21.1049C76.465 21.1049 76.1488 21.1516 76.0007 21.3988L75.9738 21.5791H75.6105L75.7787 19.3684C76.1286 19.3684 76.8888 19.3818 77.306 19.3551C77.8038 19.3217 77.8576 19.2749 78.0527 18.921L78.2613 18.9877C78.1469 19.5888 77.8038 19.876 77.1849 19.9027C76.909 19.9161 76.3775 19.9161 76.1084 19.9161L76.0277 20.9914C76.2631 20.8311 76.5457 20.7643 76.8619 20.7643C77.75 20.7643 78.268 21.2451 78.268 22.08C78.268 22.9415 77.6356 23.6294 76.5861 23.6294C75.8258 23.6294 75.2876 23.2421 75.2876 22.7345Z" fill="white"/>
<path d="M79.3243 22.7345C79.3243 22.4607 79.479 22.2603 79.7549 22.2603C80.024 22.2603 80.1518 22.4273 80.1518 22.6677C80.1518 22.8747 79.9836 23.0083 79.8894 23.0684C79.9432 23.1619 80.1989 23.3356 80.6295 23.3356C81.2955 23.3356 81.6588 22.995 81.6588 22.0933C81.6588 21.3787 81.3359 21.1049 80.8111 21.1049C80.5017 21.1049 80.1854 21.1516 80.0374 21.3988L80.0105 21.5791H79.6472L79.8154 19.3684C80.1653 19.3684 80.9255 19.3818 81.3426 19.3551C81.8405 19.3217 81.8943 19.2749 82.0894 18.921L82.298 18.9877C82.1836 19.5888 81.8405 19.876 81.2215 19.9027C80.9457 19.9161 80.4142 19.9161 80.1451 19.9161L80.0643 20.9914C80.2998 20.8311 80.5824 20.7643 80.8986 20.7643C81.7867 20.7643 82.3047 21.2451 82.3047 22.08C82.3047 22.9415 81.6723 23.6294 80.6228 23.6294C79.8558 23.6294 79.3243 23.2421 79.3243 22.7345Z" fill="white"/>
<path d="M90.9096 15.675H92.0668L91.6833 16.443H91.2931L90.9096 15.675Z" fill="white"/>
<path d="M98.2497 18.3598H97.8662V19.1278H98.2497V18.3598Z" fill="white"/>
<path d="M101.338 23.7294H100.954V24.1101H101.338V23.7294Z" fill="white"/>
<path d="M102.111 23.7294H101.728V24.1101H102.111V23.7294Z" fill="white"/>
<path d="M114.477 15.675H113.32L113.704 16.443H114.094L114.477 15.675Z" fill="white"/>
<path d="M107.521 18.3598H107.137V19.1278H107.521V18.3598Z" fill="white"/>
<path d="M104.433 23.7294H104.049V24.1101H104.433V23.7294Z" fill="white"/>
<path d="M103.659 23.7294H103.275V24.1101H103.659V23.7294Z" fill="white"/>
<path d="M103.343 0.814784C103.228 1.19547 102.697 1.28229 102.697 1.28229V1.58951L102.778 1.57616C102.778 1.57616 103.006 1.68969 103.134 1.74312C103.269 1.79655 103.322 1.62291 103.235 1.58951C103.148 1.55612 102.966 1.42922 102.966 1.42922C104.042 1.02182 103.363 -0.013378 103.282 0.0934814C103.235 0.15359 103.45 0.460812 103.343 0.814784Z" fill="white"/>
<path d="M102.044 0.814784C102.159 1.19547 102.69 1.28229 102.69 1.28229V1.58951L102.609 1.57616C102.609 1.57616 102.381 1.68969 102.253 1.74312C102.118 1.79655 102.064 1.62291 102.152 1.58951C102.239 1.55612 102.421 1.42922 102.421 1.42922C101.345 1.02182 102.024 -0.013378 102.105 0.0934814C102.152 0.15359 101.937 0.460812 102.044 0.814784Z" fill="white"/>
<path d="M103.026 1.07527C103.02 1.07527 103.013 1.07527 103.006 1.06859L102.69 0.841517L102.374 1.06859C102.36 1.07527 102.347 1.07527 102.34 1.06859C102.327 1.06191 102.327 1.04856 102.327 1.0352L102.448 0.66787L102.132 0.440794C102.118 0.434116 102.118 0.420758 102.118 0.407401C102.125 0.394043 102.132 0.387365 102.145 0.387365H102.535L102.656 0.0200361C102.663 -0.00667871 102.704 -0.00667871 102.717 0.0200361L102.838 0.387365H103.228C103.242 0.387365 103.255 0.394043 103.255 0.407401C103.262 0.420758 103.255 0.434116 103.242 0.440794L102.926 0.66787L103.047 1.0352C103.053 1.04856 103.047 1.06191 103.033 1.06859C103.04 1.07527 103.033 1.07527 103.026 1.07527Z" fill="white"/>
<path d="M101.392 24.4841H100.981V27.169H100.591L101.392 27.1756V24.4841Z" fill="white"/>
<path d="M103.639 24.4841H103.248V27.1756H103.639V24.4841Z" fill="white"/>
<path d="M102.885 27.1823V24.4841H102.502V27.1823H102.697H102.885Z" fill="white"/>
<path d="M115.251 19.1278V17.2044H114.477V16.4363H113.32V17.2044H112.56V19.1211H111.773V19.8892H107.897V19.1211H106.747V19.8892H105.973V14.1321L105.59 14.5128V14.8935H105.206V13.3574H104.823V14.8935H104.439V9.52384L103.666 9.90452C103.666 9.90452 103.666 8.04784 103.666 7.57365C103.666 7.15289 102.892 6.83232 102.892 6.83232L103.087 6.25795L102.892 5.68358V5.31625L103.087 4.93556H102.892L102.744 1.30234H102.656L102.508 4.93556H102.313L102.508 5.31625V5.69693L102.313 6.2713L102.508 6.84567C102.508 6.84567 101.735 7.16625 101.735 7.58701C101.735 8.03448 101.735 9.91788 101.735 9.91788L100.961 9.53719V14.9069H100.571V13.3708H100.187V14.9069H99.8038V14.5262L99.4203 14.1455V19.9026H98.6466V19.1345H97.4962V19.9026H93.6209V19.1345H92.8338V17.2044H92.0735V16.4363H90.9163V17.2044H90.1426V19.1211H89.7592V27.9437H99.8038L100.598 27.169V24.4842V23.7161V23.3354H102.387C102.212 23.3287 102.004 23.3087 101.883 23.2686C101.647 23.1885 101.513 22.5874 101.513 22.5874C101.513 22.5874 101.977 22.7477 102.085 22.7944C102.017 22.5073 102.017 22.5073 102.017 22.5073L102.428 22.7944C102.428 22.7944 102.569 22.387 102.697 22.387C102.825 22.387 102.966 22.7944 102.966 22.7944L103.376 22.5073C103.376 22.5073 103.376 22.5073 103.309 22.7944C103.417 22.741 103.881 22.5874 103.881 22.5874C103.881 22.5874 103.746 23.1885 103.511 23.2686C103.39 23.3087 103.181 23.3287 103.006 23.3354H104.796V23.7161V24.4842V27.169H104.406V24.4842H103.995V27.1757H104.789L105.583 27.9504H115.641V19.1278H115.251ZM92.0668 17.5917H92.4503V19.8959H92.0668V17.5917ZM91.1451 17.6785C91.5017 17.6785 91.7842 17.9657 91.7842 18.313C91.7842 18.667 91.4949 18.9475 91.1451 18.9475C90.7885 18.9475 90.4992 18.6603 90.4992 18.313C90.4992 17.959 90.7885 17.6785 91.1451 17.6785ZM90.9096 27.1824H90.5261V21.4253H90.9096V27.1824ZM91.6833 27.1824H91.2998V21.4253H91.6833V27.1824ZM92.4503 27.1824H92.0668V21.4253H92.4503V27.1824ZM93.9977 27.1824H93.6142V21.7459H93.9977V27.1824ZM94.7714 27.1824H94.3879V21.7459H94.7714V27.1824ZM95.5451 27.1824H95.1616V21.7459H95.5451V27.1824ZM96.3188 27.1824H95.9286V21.7459H96.3121V27.1824H96.3188ZM97.0925 27.1824H96.709V21.7459H97.0925V27.1824ZM97.8662 27.1824H97.476V21.7459H97.8595V27.1824H97.8662ZM97.8662 21.0446H93.6142L92.8405 20.6639H90.1359V20.2766H92.8405L93.6142 20.6573H97.8662V21.0446ZM99.0234 27.1824H98.6668V20.2766H99.0234V27.1824ZM103.659 10.6191H104.042V10.9998H103.659V10.6191ZM104.049 11.2603V11.641H103.08V11.2603H104.049ZM104.049 12.222V14.9069H103.666V12.222H104.049ZM103.275 12.222V14.9069H102.892V12.222H103.275ZM102.475 7.6204H102.502H102.865H102.892V9.53719H102.865H102.502H102.475V7.6204ZM102.441 10.165L102.609 10.1383H102.778L102.946 10.165L103.08 10.4121L103.053 10.7327L102.872 11.0733H102.704H102.529L102.347 10.7327L102.32 10.4121L102.441 10.165ZM102.502 12.222V14.9069H102.118V12.222H102.502ZM101.338 10.6191H101.721V10.9998H101.338V10.6191ZM101.338 11.2603H102.307V11.641H101.338V11.2603ZM101.338 12.222H101.721V14.9069H101.338V12.222ZM100.181 27.1824H99.7971V16.0556H100.181V27.1824ZM101.728 21.4253H101.345V16.4363H101.728V21.4253ZM102.502 21.4253H102.118V16.4363H102.502V21.4253ZM103.275 21.4253H102.892V16.4363H103.275V21.4253ZM104.049 21.4253H103.666V16.4363H104.049V21.4253ZM105.59 27.1824H105.206V16.0556H105.59V27.1824ZM105.691 15.6749H104.823L104.049 15.8686H101.345L100.571 15.6749H99.6962V15.2942H100.571L101.345 15.4879H104.049L104.823 15.2942H105.691V15.6749ZM106.72 27.1824H106.363V20.2766H106.72V27.1824ZM114.242 17.6785C114.598 17.6785 114.888 17.9657 114.888 18.313C114.888 18.667 114.598 18.9475 114.242 18.9475C113.885 18.9475 113.596 18.6603 113.596 18.313C113.603 17.959 113.892 17.6785 114.242 17.6785ZM112.937 17.5917H113.32V19.8959H112.937V17.5917ZM107.911 27.1824H107.527V21.7459H107.911V27.1824ZM108.685 27.1824H108.301V21.7459H108.685V27.1824ZM109.458 27.1824H109.075V21.7459H109.458V27.1824ZM110.232 27.1824H109.849V21.7459H110.232V27.1824ZM110.999 27.1824H110.615V21.7459H110.999V27.1824ZM111.773 27.1824H111.389V21.7459H111.773V27.1824ZM113.32 27.1824H112.937V21.4253H113.32V27.1824ZM114.094 27.1824H113.71V21.4253H114.094V27.1824ZM114.867 27.1824H114.484V21.4253H114.867V27.1824ZM115.251 20.6573H112.546L111.773 21.0379H107.521V20.6573H111.773L112.546 20.2766H115.251V20.6573Z" fill="white"/>
<path d="M102.138 27.1756V24.4841H101.755V27.1756H102.138Z" fill="white"/>
</g>
<defs>
<clipPath id="clip0_11825_5042">
<rect width="150" height="28" fill="white"/>
</clipPath>
</defs>
</svg>
