<svg width="221" height="29" viewBox="0 0 221 29" fill="none" xmlns="http://www.w3.org/2000/svg">
<g opacity="0.5">
<path d="M6.91058 20.9641C7.41003 20.4959 7.91544 20.0342 8.40791 19.5588C11.3175 16.7502 13.78 13.5811 15.967 10.1931C17.3964 7.97894 18.795 5.74505 20.2319 3.53587C20.8321 2.61314 21.5512 1.78116 22.3457 1.01098C23.3232 0.0636695 24.4715 -0.190391 25.7538 0.132747C27.1789 0.491805 28.2334 1.29718 28.6349 2.77326C28.8873 3.70122 28.7244 4.60214 28.3503 5.46961C27.8131 6.71533 26.9722 7.75208 26.0481 8.72469C24.2048 10.6651 22.0872 12.2767 19.8798 13.7745C15.8062 16.5382 11.4785 18.8536 7.03912 20.9692C7.00884 20.9836 6.97551 20.9914 6.94363 21.0023C6.93256 20.9897 6.9215 20.9769 6.91058 20.9641Z" fill="#D9D9D9"/>
<path d="M3.18698 28.5777C2.59888 27.5066 2.18531 26.4289 1.84119 25.3244C1.12251 23.0175 0.688423 20.652 0.391025 18.2581C0.154912 16.3574 0.0205528 14.4495 0.0030845 12.5356C-0.0202066 9.98056 0.0751392 7.43342 0.750726 4.94619C1.0867 3.70934 1.67378 2.61748 2.70339 1.81298C4.4789 0.425462 6.90394 1.26399 7.38126 3.4323C7.54226 4.16379 7.45317 4.90372 7.2287 5.60279C6.7639 7.05109 6.27493 8.49329 5.74215 9.91803C4.88562 12.2088 4.0681 14.5084 3.55075 16.9045C2.91592 19.845 2.70499 22.8143 2.92349 25.8129C2.98958 26.7173 3.09454 27.6189 3.18698 28.5777Z" fill="#D9D9D9"/>
<path d="M7.41589 24.381C9.75242 24.9315 12.0843 25.2236 14.4496 25.2033C17.6696 25.1756 20.7659 24.4913 23.7888 23.424C24.8484 23.0498 25.9102 22.6788 26.9829 22.3448C27.9142 22.0548 28.8568 22.0507 29.7567 22.4772C30.5579 22.8571 31.1227 23.4459 31.2569 24.3624C31.355 25.0324 31.1349 25.6198 30.6659 26.072C30.3058 26.4193 29.8826 26.726 29.4385 26.9573C28.2627 27.5695 26.9843 27.8969 25.6822 28.0942C19.2051 29.0755 13.1544 27.8772 7.53671 24.5123C7.50658 24.4943 7.47718 24.475 7.44908 24.4539C7.44093 24.4478 7.43904 24.4334 7.41589 24.381Z" fill="#D9D9D9"/>
<path d="M67.625 11.0962C68.8695 11.0962 70.0482 11.0962 71.2663 11.0962C71.2663 8.53986 71.2663 6.00566 71.2663 3.4415C71.6882 3.4415 72.0723 3.4415 72.5135 3.4415C72.5135 5.97556 72.5135 8.51863 72.5135 11.0899C73.7589 11.0899 74.9477 11.0899 76.1759 11.0899C76.1759 8.53623 76.1759 6.00188 76.1759 3.43961C76.5852 3.43961 76.9566 3.43961 77.3613 3.43961C77.3613 6.33854 77.3613 9.23544 77.3613 12.1559C73.7149 12.1559 70.0831 12.1559 66.4218 12.1559C66.4218 9.25463 66.4218 6.35585 66.4218 3.43408C66.8197 3.43408 67.2032 3.43408 67.625 3.43408C67.625 5.98283 67.625 8.5179 67.625 11.0962Z" fill="#D9D9D9"/>
<path d="M101.89 12.1539C101.89 9.24547 101.89 6.35599 101.89 3.43961C102.289 3.43961 102.672 3.43961 103.096 3.43961C103.096 5.97585 103.096 8.51019 103.096 11.0822C104.331 11.0822 105.527 11.0822 106.761 11.0822C106.761 8.52503 106.761 5.9901 106.761 3.43408C107.183 3.43408 107.567 3.43408 107.995 3.43408C107.995 5.98588 107.995 8.52096 107.995 11.0879C109.227 11.0879 110.416 11.0879 111.644 11.0879C111.644 8.54437 111.644 6.01046 111.644 3.4447C112.053 3.4447 112.425 3.4447 112.833 3.4447C112.833 6.33287 112.833 9.22976 112.833 12.1539C109.199 12.1539 105.568 12.1539 101.89 12.1539Z" fill="#D9D9D9"/>
<path d="M35.4918 3.43435C35.5845 3.42505 35.6531 3.41225 35.7218 3.4121C36.9891 3.41109 38.2566 3.39771 39.5237 3.41748C40.1422 3.42708 40.7458 3.54968 41.2955 3.86351C41.9905 4.26038 42.3029 4.87742 42.3042 5.65313C42.3055 6.44235 41.9916 7.07162 41.2802 7.46979C41.2009 7.51415 41.1236 7.56185 41.0095 7.62918C41.1665 7.6923 41.2847 7.7413 41.404 7.78741C42.2279 8.10574 42.6744 8.71115 42.7374 9.58298C42.7997 10.4445 42.527 11.1671 41.773 11.655C41.2086 12.0203 40.5668 12.1579 39.9129 12.1697C38.5039 12.1951 37.0943 12.1781 35.6848 12.1771C35.6281 12.1771 35.5714 12.1636 35.4921 12.1534C35.4918 9.24327 35.4918 6.34521 35.4918 3.43435ZM36.7337 8.27589C36.7337 9.23585 36.7337 10.2056 36.7337 11.1737C36.7925 11.1888 36.8258 11.2049 36.859 11.2049C37.8403 11.2045 38.822 11.217 39.8027 11.1915C40.0906 11.184 40.3844 11.0921 40.6601 10.9952C41.0501 10.8581 41.304 10.5712 41.4216 10.1693C41.7014 9.21244 41.2216 8.387 40.2102 8.30134C39.0837 8.20594 37.9455 8.24884 36.8124 8.23328C36.7928 8.2327 36.7725 8.25393 36.7337 8.27589ZM36.7067 7.21733C36.7721 7.24729 36.804 7.27478 36.8354 7.27434C37.8164 7.26082 38.8003 7.28423 39.7774 7.21399C40.3581 7.17225 40.8342 6.86351 40.9959 6.23949C41.2283 5.34351 40.7636 4.56694 39.8106 4.4711C38.8153 4.3709 37.8048 4.42078 36.8008 4.40711C36.782 4.40682 36.7628 4.43169 36.7067 4.47037C36.7067 4.57188 36.7067 4.69927 36.7067 4.82681C36.7067 5.62753 36.7067 6.42839 36.7067 7.21733Z" fill="#D9D9D9"/>
<path d="M44.5874 24.924C44.2227 24.924 43.8831 24.924 43.4815 24.924C43.4815 22.9063 43.4815 20.8868 43.4815 18.8674C43.4432 18.8568 43.4051 18.8463 43.3668 18.8357C42.3609 20.519 41.355 22.2025 40.3494 23.8852C40.1478 23.8852 39.9724 23.8852 39.7631 23.8852C38.7662 22.2263 37.7647 20.5596 36.7632 18.8929C36.7323 18.8993 36.7016 18.9057 36.6707 18.9121C36.6707 20.9061 36.6707 22.9001 36.6707 24.9183C36.2643 24.9183 35.9163 24.9183 35.5408 24.9183C35.5408 22.0829 35.5408 19.2566 35.5408 16.409C35.8625 16.409 36.1665 16.409 36.509 16.409C37.6789 18.3753 38.8611 20.362 40.0814 22.413C41.2815 20.3688 42.4495 18.3795 43.6074 16.4072C43.9483 16.4072 44.2526 16.4072 44.5874 16.4072C44.5874 19.2445 44.5874 22.0626 44.5874 24.924Z" fill="#D9D9D9"/>
<path d="M116.935 22.4136C118.135 20.3675 119.294 18.3922 120.459 16.4072C120.783 16.4072 121.097 16.4072 121.441 16.4072C121.441 19.2449 121.441 22.063 121.441 24.9119C121.093 24.9119 120.744 24.9119 120.333 24.9119C120.333 22.9049 120.333 20.8855 120.333 18.8662C120.295 18.8559 120.257 18.8456 120.219 18.8353C119.213 20.519 118.207 22.2028 117.202 23.8851C117 23.8851 116.824 23.8851 116.616 23.8851C115.618 22.2249 114.617 20.5581 113.615 18.8915C113.584 18.8981 113.553 18.9046 113.523 18.9112C113.523 20.9057 113.523 22.9001 113.523 24.9183C113.116 24.9183 112.768 24.9183 112.393 24.9183C112.393 22.0816 112.393 19.2551 112.393 16.4081C112.716 16.4081 113.02 16.4081 113.362 16.4081C114.532 18.3757 115.714 20.3624 116.935 22.4136Z" fill="#D9D9D9"/>
<path d="M132.353 20.5184C132.49 20.5701 132.586 20.6064 132.683 20.6426C133.525 20.958 133.981 21.5693 134.029 22.4593C134.077 23.341 133.761 24.0542 132.962 24.5054C132.434 24.8037 131.851 24.9253 131.258 24.9347C129.885 24.9567 128.511 24.9417 127.138 24.9407C127.092 24.9407 127.046 24.9291 126.972 24.9192C126.972 22.0884 126.972 19.2631 126.972 16.4155C127.068 16.4059 127.159 16.389 127.25 16.3889C128.422 16.3871 129.595 16.3629 130.766 16.3995C131.255 16.4148 131.757 16.5077 132.222 16.659C133.05 16.928 133.538 17.5206 133.596 18.4086C133.652 19.2728 133.334 19.9523 132.551 20.3819C132.493 20.4139 132.441 20.4571 132.353 20.5184ZM128.15 23.9562C128.239 23.9698 128.296 23.9863 128.352 23.9861C129.311 23.9834 130.269 23.9898 131.227 23.9663C131.481 23.9601 131.744 23.8907 131.983 23.7978C132.559 23.5735 132.812 23.1281 132.794 22.4452C132.779 21.8385 132.506 21.4516 131.925 21.2469C131.738 21.1808 131.537 21.124 131.34 21.1185C130.348 21.0911 129.355 21.0809 128.361 21.0687C128.295 21.0678 128.228 21.0991 128.15 21.1185C128.15 22.0599 128.15 22.9894 128.15 23.9562ZM128.151 20.1301C128.253 20.1426 128.321 20.1581 128.39 20.1582C129.135 20.1597 129.88 20.1733 130.625 20.1512C130.927 20.1422 131.239 20.0888 131.525 19.994C132.079 19.8112 132.349 19.397 132.369 18.8146C132.388 18.2217 132.151 17.778 131.597 17.5466C131.361 17.4483 131.098 17.3736 130.846 17.3669C130.007 17.3448 129.167 17.3576 128.327 17.3598C128.272 17.3599 128.217 17.3826 128.151 17.3973C128.151 18.3061 128.151 19.1987 128.151 20.1301Z" fill="#D9D9D9"/>
<path d="M174.258 12.162C173.87 12.162 173.507 12.162 173.098 12.162C173.098 9.96537 173.098 7.77583 173.098 5.58629C173.062 5.57073 173.027 5.55517 172.991 5.53961C171.274 7.737 169.585 9.95635 167.871 12.1658C167.5 12.1658 167.136 12.1658 166.739 12.1658C166.739 9.25947 166.739 6.36112 166.739 3.4126C166.942 3.4126 167.139 3.4126 167.336 3.4126C167.523 3.4126 167.711 3.4126 167.939 3.4126C167.939 5.64635 167.939 7.84796 167.939 10.0494C167.968 10.0605 167.996 10.0715 168.025 10.0826C169.728 7.86716 171.43 5.65158 173.136 3.43121C173.509 3.43121 173.871 3.43121 174.258 3.43121C174.258 6.33945 174.258 9.22907 174.258 12.162Z" fill="#D9D9D9"/>
<path d="M157.484 12.1808C157.484 9.23871 157.484 6.35039 157.484 3.4375C159.678 3.4375 161.85 3.4375 164.058 3.4375C164.058 3.75438 164.058 4.07592 164.058 4.45069C162.291 4.45069 160.524 4.45069 158.731 4.45069C158.731 5.31132 158.731 6.12018 158.731 6.97354C158.861 6.98474 158.996 7.00598 159.131 7.00641C159.971 7.00961 160.813 6.98198 161.653 7.01819C162.131 7.03884 162.622 7.10821 163.079 7.24811C164.044 7.54362 164.571 8.30871 164.627 9.31069C164.733 11.1961 163.512 11.906 162.239 12.1058C161.878 12.1624 161.508 12.1752 161.143 12.1778C159.936 12.1861 158.729 12.1808 157.484 12.1808ZM158.733 7.98266C158.733 9.09561 158.733 10.1383 158.733 11.1864C159.741 11.1864 160.72 11.2053 161.699 11.1749C161.995 11.1658 162.303 11.0548 162.579 10.9299C163.174 10.6601 163.41 10.1504 163.396 9.52142C163.382 8.89943 163.112 8.41341 162.509 8.20356C162.148 8.07791 161.753 8.01015 161.37 7.99211C160.674 7.95925 159.975 7.98266 159.277 7.98266C159.103 7.98266 158.929 7.98266 158.733 7.98266Z" fill="#D9D9D9"/>
<path d="M128.2 12.2878C126.226 12.2244 124.683 11.4402 123.897 9.58182C122.699 6.74601 124.47 3.5443 127.814 3.33168C129.051 3.25301 130.199 3.50285 131.187 4.27666C132.44 5.25728 132.932 6.56873 132.857 8.13876C132.763 10.0835 131.335 11.8608 129.077 12.214C128.786 12.2596 128.489 12.2645 128.2 12.2878ZM131.634 7.797C131.632 5.88654 130.161 4.39548 128.23 4.40929C126.075 4.42471 124.78 6.00666 124.777 7.78232C124.775 9.72667 126.264 11.2003 128.234 11.1892C130.162 11.1786 131.637 9.70776 131.634 7.797Z" fill="#D9D9D9"/>
<path d="M91.7023 9.65658C91.1298 10.4907 90.5554 11.3275 89.9832 12.1613C89.554 12.1613 89.1459 12.1613 88.6662 12.1613C89.3153 11.2301 89.9327 10.3444 90.5654 9.43684C90.4797 9.38696 90.425 9.34653 90.3638 9.32065C89.2508 8.84903 88.7199 7.97516 88.6498 6.80549C88.5391 4.9628 89.5945 3.68508 91.4394 3.48032C92.2008 3.39583 92.9755 3.42535 93.7442 3.4143C94.3823 3.40513 95.0206 3.4124 95.6872 3.4124C95.6872 6.33606 95.6872 9.23383 95.6872 12.1562C95.3103 12.1562 94.9391 12.1562 94.5168 12.1562C94.5168 11.324 94.5168 10.5043 94.5168 9.65673C93.5608 9.65658 92.6554 9.65658 91.7023 9.65658ZM94.4759 8.61445C94.4759 7.19233 94.4759 5.85615 94.4759 4.47271C93.4525 4.49365 92.4584 4.38589 91.4779 4.57422C90.5305 4.75615 90.0309 5.30033 89.9152 6.25069C89.7971 7.22054 90.1344 8.35807 91.5463 8.51571C92.5041 8.62289 93.4783 8.5861 94.4759 8.61445Z" fill="#D9D9D9"/>
<path d="M192.648 12.1619C192.248 12.1619 191.872 12.1619 191.445 12.1619C191.445 10.8844 191.445 9.60642 191.445 8.30485C189.731 8.30485 188.069 8.30485 186.367 8.30485C186.367 9.59217 186.367 10.8616 186.367 12.1555C185.944 12.1555 185.56 12.1555 185.148 12.1555C185.148 9.25187 185.148 6.35395 185.148 3.43408C185.549 3.43408 185.933 3.43408 186.354 3.43408C186.354 4.67282 186.354 5.89586 186.354 7.15162C188.052 7.15162 189.713 7.15162 191.423 7.15162C191.423 5.92 191.423 4.6878 191.423 3.43437C191.855 3.43437 192.239 3.43437 192.648 3.43437C192.648 6.34727 192.648 9.24532 192.648 12.1619Z" fill="#D9D9D9"/>
<path d="M201.597 4.47221C199.962 4.47221 198.345 4.47221 196.699 4.47221C196.699 5.3945 196.699 6.27317 196.699 7.21219C198.145 7.21219 199.592 7.21219 201.062 7.21219C201.062 7.58477 201.062 7.89758 201.062 8.25315C199.612 8.25315 198.172 8.25315 196.701 8.25315C196.701 9.21864 196.701 10.1421 196.701 11.1134C198.389 11.1134 200.064 11.1134 201.768 11.1134C201.768 11.4834 201.768 11.8064 201.768 12.1551C199.67 12.1551 197.58 12.1551 195.459 12.1551C195.459 9.25834 195.459 6.36043 195.459 3.4375C197.501 3.4375 199.532 3.4375 201.597 3.4375C201.597 3.76529 201.597 4.09657 201.597 4.47221Z" fill="#D9D9D9"/>
<path d="M135.648 3.42188C137.702 3.42188 139.715 3.42188 141.767 3.42188C141.767 6.32866 141.767 9.2257 141.767 12.1799C141.586 12.1799 141.401 12.1799 141.217 12.1799C141.029 12.1799 140.841 12.1799 140.614 12.1799C140.614 9.61704 140.614 7.08255 140.614 4.51025C139.294 4.51025 138.014 4.51025 136.717 4.51025C136.701 4.60376 136.679 4.68171 136.675 4.76053C136.624 5.96378 136.59 7.16792 136.522 8.37016C136.475 9.19574 136.373 10.019 136.088 10.8031C135.855 11.4443 135.516 12.0084 134.796 12.2021C134.356 12.3207 133.912 12.3064 133.447 12.1696C133.471 11.8153 133.495 11.48 133.517 11.1603C133.571 11.1375 133.592 11.1206 133.613 11.1206C134.496 11.1203 134.889 10.8887 135.104 10.0293C135.297 9.25595 135.408 8.4529 135.463 7.65655C135.555 6.31426 135.574 4.96689 135.625 3.62169C135.627 3.56512 135.637 3.50884 135.648 3.42188Z" fill="#D9D9D9"/>
<path d="M44.9489 12.1804C44.9489 9.24005 44.9489 6.34199 44.9489 3.42822C45.3515 3.42822 45.7271 3.42822 46.1526 3.42822C46.1526 4.43021 46.1526 5.42595 46.1526 6.45338C46.3377 6.4624 46.4753 6.47287 46.613 6.47534C47.5713 6.49236 48.5303 6.49279 49.4876 6.53206C49.7886 6.54442 50.0949 6.63284 50.3825 6.7326C51.3558 7.07014 51.8857 7.78389 51.9766 8.7885C52.0175 9.2399 51.9894 9.71559 51.8916 10.158C51.6561 11.2231 50.7677 11.9379 49.5344 12.1055C49.1491 12.1579 48.7566 12.174 48.3671 12.1772C47.2429 12.1862 46.1184 12.1804 44.9489 12.1804ZM46.182 11.1882C46.2753 11.1975 46.344 11.2104 46.4125 11.2104C47.1702 11.2097 47.9279 11.2148 48.6853 11.2002C48.9194 11.1957 49.1578 11.1572 49.3851 11.0987C50.3649 10.8463 50.814 10.1584 50.7479 9.03718C50.6983 8.19516 50.1167 7.58495 49.1677 7.51485C48.2259 7.44534 47.2768 7.4721 46.3307 7.4593C46.2869 7.45872 46.2427 7.48446 46.182 7.50322C46.182 8.72073 46.182 9.93315 46.182 11.1882Z" fill="#D9D9D9"/>
<path d="M88.1692 12.1692C87.7034 12.1692 87.3021 12.1692 86.8654 12.1692C86.5485 11.4582 86.2279 10.7389 85.9027 10.0092C84.3401 10.0092 82.7919 10.0092 81.2154 10.0092C80.8989 10.7192 80.5825 11.4296 80.258 12.1574C79.8469 12.1574 79.4383 12.1574 78.9796 12.1574C80.3057 9.23276 81.6211 6.33223 82.9385 3.42676C83.3586 3.42676 83.7589 3.42676 84.1908 3.42676C85.5065 6.31798 86.8256 9.21677 88.1692 12.1692ZM83.6003 4.77355C83.5716 4.77457 83.5429 4.77559 83.5142 4.77661C82.9049 6.16019 82.2955 7.54378 81.6645 8.97638C82.956 8.97638 84.1747 8.97638 85.4541 8.97638C84.8223 7.54422 84.2114 6.15888 83.6003 4.77355Z" fill="#D9D9D9"/>
<path d="M144.666 12.1632C144.236 12.1632 143.838 12.1632 143.387 12.1632C144.718 9.22979 146.033 6.32912 147.35 3.4248C147.772 3.4248 148.172 3.4248 148.601 3.4248C149.918 6.31894 151.237 9.21787 152.574 12.1545C152.122 12.1545 151.716 12.1545 151.27 12.1545C150.959 11.4554 150.638 10.736 150.313 10.0072C148.749 10.0072 147.201 10.0072 145.626 10.0072C145.309 10.7207 144.992 11.4311 144.666 12.1632ZM149.869 8.98388C149.235 7.54823 148.621 6.15635 148.007 4.76433C147.979 4.76927 147.951 4.77422 147.922 4.77902C147.313 6.16551 146.703 7.55186 146.073 8.98373C147.37 8.98388 148.584 8.98388 149.869 8.98388Z" fill="#D9D9D9"/>
<path d="M220.547 12.1682C220.084 12.1682 219.682 12.1682 219.243 12.1682C218.927 11.459 218.607 10.74 218.281 10.0092C216.72 10.0092 215.172 10.0092 213.593 10.0092C213.278 10.7167 212.962 11.4271 212.637 12.1558C212.226 12.1558 211.817 12.1558 211.358 12.1558C212.683 9.23364 213.999 6.33311 215.316 3.42676C215.736 3.42676 216.136 3.42676 216.569 3.42676C217.884 6.31609 219.203 9.21459 220.547 12.1682ZM214.043 8.97449C215.335 8.97449 216.554 8.97449 217.832 8.97449C217.2 7.54175 216.589 6.15656 215.978 4.77137C215.95 4.77297 215.921 4.77457 215.892 4.77603C215.283 6.16005 214.673 7.54407 214.043 8.97449Z" fill="#D9D9D9"/>
<path d="M118.655 8.33055C118.032 8.33055 117.445 8.33055 116.815 8.33055C116.815 9.6183 116.815 10.877 116.815 12.1572C116.397 12.1572 116.023 12.1572 115.62 12.1572C115.62 9.25619 115.62 6.35755 115.62 3.4352C116.005 3.4352 116.379 3.4352 116.802 3.4352C116.802 4.67889 116.802 5.92447 116.802 7.20102C117.449 7.20102 118.047 7.20102 118.692 7.20102C119.593 5.95951 120.515 4.68936 121.43 3.42822C121.867 3.42822 122.276 3.42822 122.762 3.42822C121.707 4.85791 120.687 6.24121 119.641 7.6597C120.717 9.14348 121.79 10.6226 122.896 12.1468C122.408 12.1468 121.969 12.1468 121.477 12.1468C120.551 10.8944 119.597 9.60477 118.655 8.33055Z" fill="#D9D9D9"/>
<path d="M144.229 17.4679C144.203 17.9868 144.166 18.4898 144.154 18.9934C144.124 20.2688 144.111 21.5483 143.837 22.7991C143.728 23.2983 143.547 23.8032 143.294 24.2453C142.863 24.9969 141.915 25.253 141.052 24.9124C141.075 24.5996 141.098 24.2762 141.122 23.9315C141.225 23.9235 141.304 23.9063 141.381 23.913C141.926 23.96 142.331 23.717 142.505 23.2298C142.703 22.68 142.884 22.1017 142.929 21.5248C143.047 19.9957 143.088 18.4606 143.16 16.9278C143.168 16.7646 143.18 16.6016 143.191 16.4146C145.186 16.4146 147.157 16.4146 149.164 16.4146C149.164 19.2406 149.164 22.0666 149.164 24.9185C148.809 24.9185 148.461 24.9185 148.055 24.9185C148.055 22.4439 148.055 19.9717 148.055 17.468C146.754 17.4679 145.509 17.4679 144.229 17.4679Z" fill="#D9D9D9"/>
<path d="M177.726 8.1461C177.726 7.80755 177.726 7.51713 177.726 7.1812C177.865 7.1748 178.002 7.16651 178.139 7.16258C178.789 7.14382 179.439 7.13146 180.089 7.10397C180.228 7.09816 180.37 7.05249 180.501 7.0013C180.947 6.8265 181.27 6.5339 181.334 6.0332C181.403 5.49003 181.209 5.05782 180.746 4.75854C180.186 4.39657 179.561 4.30219 178.909 4.34756C178.142 4.40079 177.423 4.62067 176.725 5.03703C176.59 4.69644 176.466 4.38275 176.33 4.03882C176.788 3.74419 177.273 3.57477 177.777 3.45406C179.024 3.15565 180.247 3.1779 181.405 3.78971C182.55 4.39424 182.973 5.73769 182.303 6.73445C182.069 7.08347 181.695 7.33928 181.377 7.64511C181.425 7.66634 181.524 7.71229 181.625 7.75418C183.267 8.43463 183.313 10.3973 182.271 11.3128C181.648 11.8607 180.918 12.143 180.12 12.2342C178.803 12.3844 177.546 12.1741 176.398 11.4732C176.317 11.4239 176.239 11.3705 176.162 11.3152C176.134 11.2953 176.114 11.2645 176.066 11.2113C176.194 10.937 176.326 10.6533 176.47 10.3454C176.583 10.4114 176.674 10.4609 176.761 10.5152C177.794 11.1574 178.914 11.3647 180.099 11.1195C180.448 11.0472 180.794 10.8787 181.099 10.6867C181.595 10.3736 181.779 9.8854 181.69 9.30602C181.608 8.7742 181.247 8.46895 180.769 8.3321C180.387 8.22289 179.981 8.17257 179.582 8.15352C178.98 8.12487 178.376 8.1461 177.726 8.1461Z" fill="#D9D9D9"/>
<path d="M160.626 20.3627C160.626 21.8715 160.626 23.3803 160.626 24.9158C160.275 24.9158 159.952 24.9158 159.605 24.9158C159.605 22.7755 159.605 20.6443 159.605 18.4857C159.986 18.4857 160.36 18.4857 160.79 18.4857C161.613 19.8969 162.455 21.3384 163.338 22.8504C164.239 21.348 165.099 19.9154 165.958 18.4834C166.318 18.4834 166.656 18.4834 167.018 18.4834C167.018 20.6382 167.018 22.7681 167.018 24.9428C166.832 24.9428 166.67 24.9428 166.508 24.9428C166.356 24.9428 166.203 24.9428 166 24.9428C166 23.4131 166 21.9108 166 20.4087C165.966 20.3988 165.932 20.3889 165.899 20.379C165.125 21.6524 164.35 22.9256 163.574 24.2017C163.402 24.2017 163.251 24.2017 163.052 24.2017C162.285 22.9228 161.505 21.624 160.725 20.3254C160.692 20.3377 160.659 20.3502 160.626 20.3627Z" fill="#D9D9D9"/>
<path d="M80.8593 18.4862C81.2455 18.4862 81.5726 18.4862 81.9171 18.4862C81.9171 20.643 81.9171 22.7731 81.9171 24.9233C81.788 24.9312 81.6844 24.9415 81.5806 24.943C81.3698 24.9459 81.159 24.9438 80.8954 24.9438C80.8954 23.4105 80.8954 21.9094 80.8954 20.4084C80.8631 20.3997 80.8307 20.391 80.7984 20.3821C80.0236 21.6562 79.2485 22.9301 78.4737 24.2042C78.2973 24.2042 78.1457 24.2042 77.9539 24.2042C77.1835 22.9207 76.4044 21.6227 75.6253 20.3247C75.5959 20.3338 75.5667 20.3428 75.5373 20.352C75.5373 21.8663 75.5373 23.3805 75.5373 24.919C75.1716 24.919 74.8484 24.919 74.5037 24.919C74.5037 22.7723 74.5037 20.6412 74.5037 18.4849C74.8927 18.4849 75.2671 18.4849 75.69 18.4849C76.5133 19.8961 77.3508 21.3314 78.237 22.8506C79.136 21.3546 79.9997 19.9169 80.8593 18.4862Z" fill="#D9D9D9"/>
<path d="M64.5626 4.63082C64.3145 4.92007 64.0863 5.18605 63.8588 5.45131C62.1703 3.81584 59.764 4.33967 58.7219 5.53406C57.5884 6.8333 57.623 8.90243 58.7892 10.1361C59.8678 11.2772 62.1738 11.7571 63.842 10.1463C64.079 10.412 64.3167 10.6785 64.5597 10.9508C63.7966 12.0743 61.5831 12.6066 59.787 12.0724C57.9016 11.5117 56.6757 9.87257 56.6378 7.86248C56.6008 5.8953 57.7846 4.20297 59.6355 3.57691C61.4409 2.96612 63.6982 3.45839 64.5626 4.63082Z" fill="#D9D9D9"/>
<path d="M210.964 4.64912C210.711 4.9266 210.474 5.18516 210.238 5.44315C208.537 3.80289 206.153 4.36554 205.133 5.50277C204.006 6.76013 203.99 8.78098 205.095 10.0552C206.076 11.1874 208.465 11.8538 210.229 10.163C210.477 10.4105 210.725 10.6581 210.971 10.9039C210.232 12.0445 208.048 12.5922 206.244 12.0977C204.358 11.5806 203.106 9.96402 203.023 7.94027C202.943 5.98545 204.102 4.26796 205.947 3.60627C207.762 2.95592 210.023 3.42609 210.964 4.64912Z" fill="#D9D9D9"/>
<path d="M208.232 24.9343C208.232 22.7682 208.232 20.6378 208.232 18.4951C208.305 18.4814 208.362 18.4612 208.418 18.4619C209.554 18.4765 210.69 18.476 211.824 18.5211C212.145 18.5339 212.481 18.6383 212.774 18.7755C213.899 19.3005 213.99 20.7203 212.96 21.4135C212.883 21.465 212.808 21.5184 212.713 21.5844C212.779 21.6189 212.818 21.6418 212.859 21.6603C213.639 22.0095 213.918 22.4552 213.88 23.2946C213.849 23.9877 213.455 24.4997 212.723 24.7426C212.434 24.8386 212.125 24.9202 211.824 24.9256C210.641 24.9465 209.458 24.9343 208.232 24.9343ZM209.375 24.015C210.2 24.015 211 24.0162 211.801 24.013C211.87 24.0127 211.94 23.9862 212.008 23.9672C212.555 23.8138 212.796 23.4258 212.694 22.8669C212.622 22.4702 212.352 22.1785 211.842 22.1478C211.032 22.0989 210.217 22.1347 209.375 22.1347C209.375 22.7651 209.375 23.3826 209.375 24.015ZM209.387 19.4137C209.387 20.01 209.387 20.622 209.387 21.3009C210.167 21.2692 210.919 21.2451 211.671 21.2025C211.806 21.1948 211.945 21.1267 212.067 21.0595C212.335 20.9124 212.476 20.6797 212.491 20.3696C212.515 19.8409 212.242 19.4703 211.654 19.4265C210.926 19.3726 210.192 19.4137 209.387 19.4137Z" fill="#D9D9D9"/>
<path d="M101.621 23.0851C102.921 21.5471 104.22 20.0091 105.51 18.4819C105.866 18.4819 106.193 18.4819 106.549 18.4819C106.549 20.634 106.549 22.7636 106.549 24.9185C106.179 24.9185 105.82 24.9185 105.423 24.9185C105.423 23.3947 105.423 21.8771 105.423 20.3594C105.393 20.3444 105.363 20.3294 105.333 20.3145C104.039 21.8506 102.746 23.3867 101.446 24.93C101.103 24.93 100.762 24.93 100.391 24.93C100.391 22.7902 100.391 20.6594 100.391 18.494C100.74 18.494 101.098 18.494 101.521 18.494C101.521 20.0108 101.521 21.5328 101.521 23.0549C101.554 23.0649 101.588 23.0751 101.621 23.0851Z" fill="#D9D9D9"/>
<path d="M71.1741 18.4775C71.5385 18.4775 71.8552 18.4775 72.2055 18.4775C72.2055 20.6345 72.2055 22.7731 72.2055 24.9278C71.8328 24.9278 71.481 24.9278 71.0777 24.9278C71.0777 23.3969 71.0777 21.8728 71.0777 20.3487C71.0482 20.3384 71.0186 20.3281 70.9891 20.3178C69.6995 21.8498 68.41 23.3819 67.1124 24.9236C66.7641 24.9236 66.4146 24.9236 66.0435 24.9236C66.0435 22.7727 66.0435 20.6418 66.0435 18.485C66.4166 18.485 66.7757 18.485 67.1843 18.485C67.1843 20.0209 67.1843 21.5361 67.1843 23.0512C67.2156 23.0637 67.2469 23.0762 67.2782 23.0887C68.5766 21.5521 69.8748 20.0156 71.1741 18.4775Z" fill="#D9D9D9"/>
<path d="M90.1178 22.112C88.3407 22.112 86.6273 22.112 84.8668 22.112C84.9693 22.8814 85.3645 23.3983 86.0055 23.7356C86.9528 24.234 88.0575 24.0632 89.1097 23.2494C89.311 23.4827 89.5144 23.7181 89.7284 23.9661C89.4515 24.3241 89.1135 24.561 88.7296 24.7143C87.608 25.1624 86.4842 25.1525 85.3952 24.6169C84.4736 24.1637 83.9225 23.3994 83.7566 22.3946C83.5156 20.9357 83.9745 19.6732 85.1297 18.9205C86.7595 17.8588 89.7857 18.3423 90.1136 21.2709C90.1433 21.5341 90.1178 21.8032 90.1178 22.112ZM88.9896 21.2446C88.9813 20.2231 88.0858 19.4087 86.9824 19.3977C85.8334 19.3862 84.9176 20.1847 84.8958 21.2446C86.2606 21.2446 87.6251 21.2446 88.9896 21.2446Z" fill="#D9D9D9"/>
<path d="M219.613 21.2247C219.774 20.1722 219.206 19.4918 218.163 19.421C217.433 19.3712 216.756 19.5469 216.128 19.9183C216.048 19.9656 215.969 20.0133 215.855 20.0812C215.697 19.8046 215.547 19.5428 215.379 19.2475C215.498 19.1599 215.601 19.0664 215.72 19.0005C216.828 18.3848 218.007 18.2547 219.22 18.5788C220.12 18.8192 220.627 19.4541 220.772 20.3664C220.818 20.6564 220.836 20.953 220.839 21.2468C220.846 22.3327 220.842 23.4187 220.842 24.5048C220.842 24.6328 220.842 24.7609 220.842 24.9162C220.467 24.9162 220.121 24.9162 219.74 24.9162C219.74 24.6886 219.74 24.4692 219.74 24.2074C219.66 24.2433 219.612 24.2497 219.59 24.2771C218.876 25.1752 216.952 25.2129 216.06 24.6511C215.412 24.2432 215.131 23.6572 215.204 22.9119C215.279 22.1532 215.706 21.6365 216.432 21.4267C216.858 21.3037 217.314 21.2557 217.759 21.2326C218.37 21.2008 218.985 21.2247 219.613 21.2247ZM219.594 22.0136C218.797 22.048 218.005 22.0498 217.22 22.1268C216.674 22.1803 216.38 22.5306 216.353 22.9988C216.324 23.5016 216.601 23.9065 217.133 24.0323C217.449 24.1071 217.793 24.1383 218.114 24.1012C218.991 24 219.93 23.4071 219.594 22.0136Z" fill="#D9D9D9"/>
<path d="M154.642 18.4229C156.105 18.4255 157.341 19.3369 157.72 20.8131C158.355 23.2816 156.381 25.4075 153.858 24.9734C152.614 24.7594 151.698 24.1012 151.295 22.8998C150.878 21.6606 151.019 20.4633 151.93 19.4539C152.603 18.7077 153.484 18.4085 154.642 18.4229ZM156.659 21.7025C156.657 20.3764 155.734 19.4184 154.46 19.4199C153.194 19.4214 152.259 20.3921 152.256 21.7063C152.254 23.0307 153.225 24.0379 154.482 24.0147C155.756 23.9912 156.661 23.0294 156.659 21.7025Z" fill="#D9D9D9"/>
<path d="M172.316 18.4227C173.86 18.4235 175.155 19.426 175.468 20.9734C175.944 23.331 174.155 25.2791 171.747 25.001C170.476 24.8542 169.496 24.2304 169.041 23.0083C168.568 21.7406 168.694 20.5114 169.627 19.4625C170.295 18.7108 171.176 18.4115 172.316 18.4227ZM174.362 21.7265C174.368 20.3946 173.459 19.4305 172.187 19.42C170.918 19.4097 169.976 20.3663 169.96 21.6825C169.943 23.0043 170.891 24.0092 172.161 24.0145C173.421 24.0197 174.357 23.0465 174.362 21.7265Z" fill="#D9D9D9"/>
<path d="M185.013 21.7138C185.013 19.7644 186.375 18.4256 188.363 18.4224C190.341 18.4192 191.741 19.7724 191.749 21.6946C191.757 23.6243 190.333 25.0233 188.365 25.0205C186.403 25.0175 185.014 23.6467 185.013 21.7138ZM190.572 21.7269C190.577 20.3951 189.668 19.4305 188.398 19.4198C187.128 19.4091 186.186 20.3654 186.169 21.6818C186.152 23.0034 187.1 24.0082 188.37 24.0143C189.629 24.0203 190.566 23.0468 190.572 21.7269Z" fill="#D9D9D9"/>
<path d="M203.121 18.4224C204.789 18.4278 206.07 19.4212 206.392 20.9601C206.901 23.3929 204.945 25.3969 202.478 24.9704C201.234 24.7553 200.321 24.0917 199.921 22.8893C199.513 21.6632 199.659 20.4844 200.542 19.469C201.138 18.783 202.053 18.4189 203.121 18.4224ZM205.29 21.6923C205.284 20.3686 204.355 19.4133 203.081 19.4199C201.816 19.4263 200.883 20.4031 200.887 21.7163C200.891 23.0278 201.829 24.0071 203.087 24.0142C204.359 24.0215 205.296 23.0347 205.29 21.6923Z" fill="#D9D9D9"/>
<path d="M53.282 16.4009C53.7479 16.4009 54.1487 16.4009 54.5796 16.4009C55.4932 18.1813 56.4082 19.9646 57.3632 21.8254C58.3351 19.9791 59.2719 18.1995 60.2156 16.4068C60.5928 16.4068 60.9677 16.4068 61.3943 16.4068C61.3286 16.545 61.2803 16.6596 61.2215 16.7685C60.0387 18.9631 58.857 21.1584 57.6686 23.3498C57.5226 23.619 57.3598 23.8838 57.1706 24.1238C56.3979 25.1033 55.1728 25.3945 54.0852 24.8449C54.181 24.5446 54.2788 24.2376 54.3816 23.9151C54.8806 24.0398 55.355 24.1488 55.821 23.9027C56.2399 23.6815 56.4781 23.3037 56.7232 22.8777C55.5891 20.7433 54.4494 18.5983 53.282 16.4009Z" fill="#D9D9D9"/>
<path d="M177.237 18.4863C177.604 18.4863 177.964 18.4863 178.377 18.4863C178.377 19.3918 178.377 20.2815 178.377 21.1971C179.631 21.1971 180.832 21.1971 182.086 21.1971C182.086 20.2962 182.086 19.4051 182.086 18.4872C182.488 18.4872 182.836 18.4872 183.219 18.4872C183.219 20.6258 183.219 22.7552 183.219 24.914C182.872 24.914 182.523 24.914 182.113 24.914C182.113 24.048 182.113 23.1718 182.113 22.2657C180.852 22.2657 179.652 22.2657 178.396 22.2657C178.396 23.1432 178.396 24.0207 178.396 24.92C177.981 24.92 177.621 24.92 177.237 24.92C177.237 22.7766 177.237 20.6452 177.237 18.4863Z" fill="#D9D9D9"/>
<path d="M91.9999 18.479C92.3728 18.479 92.7231 18.479 93.1414 18.479C93.1414 18.9356 93.1414 19.3789 93.1414 19.8223C93.1414 20.2688 93.1414 20.7154 93.1414 21.1927C94.3799 21.1927 95.5803 21.1927 96.8363 21.1927C96.8363 20.3029 96.8363 19.4131 96.8363 18.4917C97.2482 18.4917 97.6053 18.4917 97.9858 18.4917C97.9858 20.64 97.9858 22.7701 97.9858 24.9217C97.6116 24.9217 97.2629 24.9217 96.8552 24.9217C96.8552 24.0301 96.8552 23.1527 96.8552 22.2592C95.5949 22.2592 94.3938 22.2592 93.149 22.2592C93.149 23.1514 93.149 24.0196 93.149 24.915C92.7468 24.915 92.3877 24.915 91.9999 24.915C91.9999 22.7846 91.9999 20.6531 91.9999 18.479Z" fill="#D9D9D9"/>
<path d="M198.869 19.8023C198.582 19.9858 198.315 20.1572 198.015 20.3491C197.527 19.6872 196.871 19.3698 196.056 19.4294C195.484 19.4714 194.977 19.6823 194.579 20.1132C193.775 20.9828 193.796 22.5459 194.634 23.3803C195.115 23.8585 195.715 24.0477 196.383 23.9932C197.069 23.9373 197.17 23.8719 198.047 23.1066C198.315 23.2749 198.592 23.4482 198.866 23.6197C198.337 24.7201 196.848 25.2649 195.355 24.9287C193.836 24.5865 192.845 23.3386 192.835 21.7559C192.825 20.1398 193.776 18.8789 195.272 18.5237C196.811 18.1586 198.309 18.6791 198.869 19.8023Z" fill="#D9D9D9"/>
<path d="M52.8959 16.4087C52.8959 16.7435 52.8959 17.0573 52.8959 17.4251C51.4455 17.4251 49.9988 17.4251 48.5147 17.4251C48.5147 19.9492 48.5147 22.4202 48.5147 24.9167C48.1064 24.9167 47.7361 24.9167 47.3407 24.9167C47.3407 22.0795 47.3407 19.2548 47.3407 16.4087C49.1904 16.4087 51.0204 16.4087 52.8959 16.4087Z" fill="#D9D9D9"/>
<path d="M53.455 3.43408C53.8495 3.43408 54.2209 3.43408 54.6186 3.43408C54.6186 6.34974 54.6186 9.24416 54.6186 12.1598C54.2211 12.1598 53.8497 12.1598 53.455 12.1598C53.455 9.24474 53.455 6.34945 53.455 3.43408Z" fill="#D9D9D9"/>
<path d="M136.956 24.1666C136.962 24.6543 136.625 25.0163 136.16 25.0199C135.688 25.0236 135.336 24.6719 135.333 24.194C135.33 23.7264 135.694 23.3557 136.155 23.356C136.615 23.3562 136.949 23.6944 136.956 24.1666Z" fill="#D9D9D9"/>
<path d="M124.201 25.0199C123.731 25.0162 123.386 24.6585 123.389 24.1789C123.393 23.7136 123.767 23.3457 124.226 23.3562C124.688 23.3668 125.011 23.7061 125.012 24.1812C125.012 24.6672 124.668 25.0235 124.201 25.0199Z" fill="#D9D9D9"/>
</g>
</svg>
